<?xml version="1.0" standalone="no"?>
<!DOCTYPE svg PUBLIC "-//W3C//DTD SVG 20010904//EN"
 "http://www.w3.org/TR/2001/REC-SVG-20010904/DTD/svg10.dtd">
<svg version="1.0" xmlns="http://www.w3.org/2000/svg"
 width="260.000000pt" height="260.000000pt" viewBox="0 0 260.000000 260.000000"
 preserveAspectRatio="xMidYMid meet">
<metadata>
Created by potrace 1.11, written by Peter Selinger 2001-2013
</metadata>
<g transform="translate(0.000000,260.000000) scale(0.100000,-0.100000)"
fill="#000000" stroke="none">
<path d="M861 2519 c11 -34 22 -65 25 -70 3 -5 -16 -9 -43 -10 -54 -1 -150 -6
-173 -8 -10 -1 -3 -10 18 -27 17 -14 32 -29 32 -32 0 -4 -15 -8 -32 -9 -117
-6 -214 -16 -221 -22 -4 -4 24 -31 63 -60 41 -32 67 -58 63 -65 -4 -6 -24 -34
-44 -62 -57 -78 -84 -170 -88 -308 -1 -17 -7 -18 -65 -12 -62 6 -65 5 -86 -21
-50 -65 -140 -194 -140 -202 0 -4 20 -5 45 -1 25 4 45 5 45 2 0 -8 41 -217 45
-229 3 -8 24 -1 65 22 33 19 60 32 60 30 0 -3 -27 -67 -60 -142 -33 -76 -60
-141 -60 -145 0 -5 27 -8 60 -8 l60 0 -1 -97 c-2 -112 -2 -112 75 -56 l48 35
-6 -104 c-3 -56 -9 -135 -12 -174 -7 -80 -7 -79 66 -83 55 -3 61 -9 67 -58 2
-21 6 -49 8 -63 3 -14 8 -53 11 -88 7 -68 10 -68 44 -7 105 187 133 236 140
240 5 3 36 -4 70 -15 119 -40 194 -1 237 122 18 52 19 225 3 334 -46 302 -198
459 -454 468 -94 3 -114 10 -94 33 10 13 29 15 109 9 97 -6 144 -18 216 -55
139 -70 233 -231 270 -461 10 -63 6 -294 -5 -336 -39 -137 -151 -200 -285
-160 l-46 14 -39 -67 c-79 -133 -77 -110 -31 -272 23 -79 45 -148 49 -153 8
-8 84 43 101 68 4 5 13 7 20 4 13 -5 25 -25 91 -150 17 -32 33 -58 37 -58 3 0
28 54 55 120 l48 119 86 -2 85 -2 40 -118 c22 -64 43 -117 47 -117 4 0 16 17
26 38 11 21 37 70 58 109 l40 72 40 -32 c23 -17 50 -40 60 -49 11 -10 21 -17
22 -15 1 1 23 73 49 160 32 107 44 162 37 170 -5 7 -26 44 -47 82 -54 99 -48
95 -102 79 -127 -38 -227 11 -274 135 -33 87 -30 326 5 462 56 213 157 334
330 396 51 18 225 28 246 14 29 -20 -7 -34 -88 -37 -44 -1 -99 -8 -123 -14
-221 -60 -341 -269 -348 -607 -3 -140 12 -212 56 -264 49 -58 117 -69 210 -34
24 9 47 14 52 11 10 -7 131 -213 131 -224 0 -4 11 -20 25 -37 l24 -30 2 38 c1
20 2 40 3 45 2 4 6 42 10 85 9 80 14 90 56 94 14 2 40 6 58 9 l34 5 -6 72
c-15 194 -18 224 -21 250 -1 15 0 27 2 27 3 0 31 -20 64 -45 l59 -45 1 63 c0
34 0 81 -1 105 l-2 42 61 0 c34 0 61 2 61 5 0 2 -27 67 -60 144 -64 149 -67
159 -47 144 6 -5 33 -22 59 -36 l47 -27 10 37 c5 21 12 54 15 73 6 36 11 65
22 112 3 15 11 25 17 23 7 -2 28 -6 48 -8 l37 -4 -82 116 -82 116 -67 -3 c-37
-1 -67 1 -68 5 0 4 -2 35 -3 68 -4 91 -32 170 -89 253 -34 49 -48 76 -39 79 7
3 31 20 54 39 22 19 50 40 61 45 10 6 15 14 11 19 -7 6 -147 20 -243 23 -22 1
-22 3 13 34 27 25 31 33 18 34 -9 1 -60 3 -111 5 -52 3 -97 6 -99 8 -2 2 4 18
13 35 8 17 13 31 10 31 -3 0 1 16 9 35 8 19 11 35 7 35 -5 0 -80 -29 -166 -65
l-158 -65 -127 0 -128 0 -158 65 c-87 36 -162 65 -165 65 -4 0 2 -27 12 -61z
m-73 -618 l64 -92 58 55 c32 31 63 56 68 56 4 0 39 -35 77 -77 37 -43 98 -112
136 -153 37 -41 77 -86 89 -100 l21 -24 22 25 c29 34 149 169 163 183 5 6 34
38 64 71 29 33 60 64 68 69 10 6 30 -7 71 -48 l57 -57 64 96 c41 60 71 95 82
95 10 0 18 -6 18 -13 0 -15 -136 -218 -153 -229 -7 -4 -35 15 -70 50 l-58 57
-42 -45 c-23 -25 -76 -83 -117 -130 -41 -46 -96 -106 -122 -134 l-48 -51 -37
40 c-59 63 -185 204 -234 262 -24 28 -47 52 -51 52 -4 1 -35 -24 -69 -54 -34
-30 -65 -52 -70 -49 -5 3 -42 54 -83 114 -53 78 -70 112 -63 119 19 19 30 8
95 -88z m27 -574 c0 -53 17 -76 63 -83 24 -4 37 1 62 26 17 17 35 28 41 25 16
-11 10 -41 -13 -62 -38 -34 -58 -40 -101 -32 -76 13 -121 96 -86 160 17 33 34
16 34 -34z m1022 -27 c-10 -90 -116 -133 -186 -74 -33 28 -42 64 -15 64 9 0
24 -10 33 -22 23 -28 70 -31 102 -8 19 15 23 27 23 62 -2 48 14 67 34 40 9
-11 12 -33 9 -62z m-703 -814 l35 -33 -35 -34 -34 -33 -35 34 -35 34 32 33
c18 18 33 33 35 33 1 0 18 -15 37 -34z m391 16 c47 -41 49 -49 19 -82 -16 -16
-33 -30 -39 -30 -6 0 -23 14 -38 30 l-29 30 29 34 c33 41 32 40 58 18z"/>
<path d="M171 2293 c-63 -95 -86 -253 -47 -325 31 -57 61 -71 186 -83 36 -3
74 -7 85 -8 17 -2 21 6 26 53 8 70 26 135 51 183 11 22 18 41 15 43 -2 2 -28
6 -58 10 -208 22 -225 30 -223 119 0 30 0 55 -2 55 -1 0 -16 -21 -33 -47z"/>
<path d="M2396 2294 c6 -43 3 -54 -17 -77 -25 -29 -68 -39 -203 -51 -65 -5
-73 -10 -59 -28 22 -27 54 -136 60 -200 5 -54 9 -66 22 -63 13 2 77 9 181 19
28 3 77 39 95 69 47 79 15 258 -64 357 l-20 25 5 -51z"/>
</g>
</svg>
